<?xml version="1.0" encoding="UTF-8"?>
<svg width="162px" height="53px" viewBox="0 0 162 53" version="1.1" xmlns="http://www.w3.org/2000/svg" xmlns:xlink="http://www.w3.org/1999/xlink">
    <!-- Generator: Sketch 42 (36781) - http://www.bohemiancoding.com/sketch -->
    <title>btn_download_apk</title>
    <desc>Created with Sketch.</desc>
    <defs>
        <rect id="path-1" x="0" y="0" width="160" height="51" rx="4"></rect>
        <mask id="mask-2" maskContentUnits="userSpaceOnUse" maskUnits="objectBoundingBox" x="-1" y="-1" width="162" height="53">
            <rect x="-1" y="-1" width="162" height="53" fill="white"></rect>
            <use xlink:href="#path-1" fill="black"></use>
        </mask>
    </defs>
    <g id="Page-1" stroke="none" stroke-width="1" fill="none" fill-rule="evenodd">
        <g id="Artboard" transform="translate(-28.000000, -180.000000)">
            <g id="btn_download_apk" transform="translate(29.000000, 181.000000)">
                <g id="container">
                    <use fill="#FFFFFF" fill-rule="evenodd" xlink:href="#path-1"></use>
                    <use stroke="#5D5D5D" mask="url(#mask-2)" stroke-width="2" xlink:href="#path-1"></use>
                </g>
                <path d="M42.3916,36.9608 L42.3916,23.9659997 C43.2932,23.7895997 44.3712001,23.6915997 45.5276001,23.6915997 C47.6640001,23.6915997 49.1928002,24.2011998 50.2120002,25.1419998 C51.3488002,26.1611998 52.0544002,27.7487998 52.0544002,30.0615999 C52.0544002,32.4919999 51.3684002,34.1971999 50.2512002,35.334 C49.1144002,36.4904 47.3112001,37.098 45.0572001,37.098 C44.0184001,37.098 43.1364,37.0392 42.3916,36.9608 Z M44.0380001,25.1419998 L44.0380001,35.6868 C44.4104001,35.7456 44.9200001,35.7456 45.4100001,35.7456 C48.4676001,35.7456 50.3296002,33.9619999 50.3296002,30.1203999 C50.3492002,26.9255998 48.8008002,25.0047998 45.6452001,25.0047998 C44.9592001,25.0047998 44.4104001,25.0635998 44.0380001,25.1419998 Z M56.9905378,37.196 L56.9709378,37.196 C54.6581377,37.196 52.8549377,35.432 52.8549377,32.3155999 C52.8549377,29.0423998 54.7757377,27.3175998 57.1081378,27.3175998 C59.5189378,27.3175998 61.2241379,29.1599998 61.2241379,32.1979999 C61.2241379,35.7652 59.0093378,37.196 56.9905378,37.196 Z M57.0297378,35.9416 L57.0493378,35.9416 C58.5977378,35.9416 59.5385378,34.1971999 59.5385378,32.2371999 C59.5385378,30.6691999 58.8917378,28.5719998 57.0493378,28.5719998 C55.2265378,28.5719998 54.5405377,30.5711999 54.5405377,32.2763999 C54.5405377,34.1971999 55.4617378,35.9416 57.0297378,35.9416 Z M61.4170754,27.5135998 L64.1218754,37 L65.6114754,37 L67.0030755,32.4723999 C67.2970755,31.4923999 67.5714755,30.5319999 67.7870755,29.3951999 L67.8262755,29.3951999 C68.0222755,30.4927999 68.2574755,31.4139999 68.5710755,32.4527999 L69.9038755,37 L71.3738755,37 L74.2354756,27.5135998 L72.5890756,27.5135998 L71.3738755,32.2175999 C71.0994755,33.3347999 70.8642755,34.3147999 70.7074755,35.2948 L70.6486755,35.2948 C70.4526755,34.2951999 70.1782755,33.2955999 69.8842755,32.1979999 L68.5318755,27.5135998 L67.1794755,27.5135998 L65.7682754,32.2959999 C65.4742754,33.2759999 65.1802754,34.3343999 64.9842754,35.2948 L64.9254754,35.2948 C64.7686754,34.3147999 64.5334754,33.3151999 64.2786754,32.2567999 L63.1222754,27.5135998 L61.4170754,27.5135998 Z M75.1732131,37 L76.8196131,37 L76.8196131,31.1983999 C76.8196131,30.9043999 76.8588131,30.6103999 76.9176131,30.3947999 C77.1920131,29.4147999 77.9956132,28.6895998 78.9756132,28.6895998 C80.4260132,28.6895998 80.8964132,29.9243999 80.8964132,31.3355999 L80.8964132,37 L82.5428132,37 L82.5428132,31.1199999 C82.5428132,28.1603998 80.8180132,27.3175998 79.5244132,27.3175998 C78.1328132,27.3175998 77.1332131,28.1015998 76.6824131,28.9443998 L76.6432131,28.9443998 L76.5452131,27.5135998 L75.0948131,27.5135998 C75.1340131,28.2975998 75.1732131,29.0227998 75.1732131,30.0419999 L75.1732131,37 Z M84.4801508,37 L86.1265508,37 L86.1265508,23.1819997 L84.4801508,23.1819997 L84.4801508,37 Z M91.6506884,37.196 L91.6310884,37.196 C89.3182883,37.196 87.5150883,35.432 87.5150883,32.3155999 C87.5150883,29.0423998 89.4358883,27.3175998 91.7682884,27.3175998 C94.1790884,27.3175998 95.8842885,29.1599998 95.8842885,32.1979999 C95.8842885,35.7652 93.6694884,37.196 91.6506884,37.196 Z M91.6898884,35.9416 L91.7094884,35.9416 C93.2578884,35.9416 94.1986884,34.1971999 94.1986884,32.2371999 C94.1986884,30.6691999 93.5518884,28.5719998 91.7094884,28.5719998 C89.8866883,28.5719998 89.2006883,30.5711999 89.2006883,32.2763999 C89.2006883,34.1971999 90.1218883,35.9416 91.6898884,35.9416 Z M103.388026,31.0611999 L103.388026,34.7656 C103.388026,35.5496 103.407626,36.3532 103.525226,37 L102.035626,37 L101.898426,35.8632 L101.839626,35.8632 C101.349626,36.5884 100.448026,37.196 99.232826,37.196 C97.527626,37.196 96.5476259,35.922 96.5476259,34.4716 C96.5476259,32.1587999 98.527226,30.9631999 101.741626,30.9827999 L101.741626,30.7475999 C101.741626,29.8263999 101.486826,28.5523998 99.781626,28.5719998 C98.978026,28.5719998 98.174426,28.8071998 97.586426,29.2187998 L97.214026,28.0819998 C97.880426,27.6507998 98.938826,27.3175998 100.056026,27.3175998 C102.643226,27.3175998 103.388026,29.0815998 103.388026,31.0611999 Z M101.780826,33.8639999 L101.780826,32.1391999 C100.232426,32.1195999 98.194026,32.3939999 98.194026,34.2951999 C98.194026,35.4516 98.899626,35.9416 99.664026,35.9416 C100.742026,35.9416 101.467226,35.2556 101.702426,34.4127999 C101.761226,34.2363999 101.780826,34.0403999 101.780826,33.8639999 Z M111.087764,23.1819997 L112.734164,23.1819997 L112.734164,34.6088 C112.734164,35.3928 112.773364,36.3728 112.812564,37 L111.362164,37 L111.264164,35.4908 L111.205364,35.4908 C110.754564,36.4316 109.735364,37.196 108.363364,37.196 C106.266164,37.196 104.678564,35.3144 104.678564,32.3547999 C104.678564,29.1403998 106.462164,27.3175998 108.520164,27.3175998 C109.754964,27.3175998 110.636964,27.8859998 111.048564,28.6503998 L111.087764,28.6503998 L111.087764,23.1819997 Z M111.087764,33.1975999 L111.087764,31.2963999 C111.087764,31.0807999 111.068164,30.8063999 111.028964,30.5907999 C110.813364,29.5323999 109.990164,28.6503998 108.853364,28.6503998 C107.226564,28.6503998 106.344564,30.2771999 106.344564,32.2959999 C106.344564,34.2363999 107.167764,35.8436 108.814164,35.8436 C109.754964,35.8436 110.676164,35.2164 111.009364,33.9031999 C111.068164,33.7071999 111.087764,33.4719999 111.087764,33.1975999 Z M125.034679,33.2563999 L120.840279,33.2563999 L119.703479,37 L117.214279,37 L121.447879,23.7895997 L124.525079,23.7895997 L128.817479,37 L126.230279,37 L125.034679,33.2563999 Z M121.232279,31.4335999 L124.623079,31.4335999 L123.584279,28.1799998 C123.329479,27.3763998 123.113879,26.4747998 122.917879,25.7103998 L122.878679,25.7103998 C122.682679,26.4747998 122.486679,27.3959998 122.251479,28.1799998 L121.232279,31.4335999 Z M129.949057,37 L129.949057,23.9659997 C130.811457,23.8091997 132.007057,23.6915997 133.633857,23.6915997 C135.397857,23.6915997 136.691457,24.0639997 137.534257,24.7695998 C138.318257,25.4163998 138.827857,26.4551998 138.827857,27.6899998 C138.827857,28.9443998 138.435857,29.9831999 137.691057,30.6887999 C136.730657,31.6491999 135.221457,32.0999999 133.516257,32.0999999 C133.065457,32.0999999 132.653857,32.0803999 132.340257,32.0215999 L132.340257,37 L129.949057,37 Z M132.340257,25.6515998 L132.340257,30.1203999 C132.634257,30.1987999 133.026257,30.2183999 133.516257,30.2183999 C135.319457,30.2183999 136.417057,29.3363999 136.417057,27.7879998 C136.417057,26.3179998 135.397857,25.5339998 133.731857,25.5339998 C133.065457,25.5339998 132.595057,25.5927998 132.340257,25.6515998 Z M140.194635,37 L142.585835,37 L142.585835,32.3547999 L143.761835,30.9435999 L147.505435,37 L150.327835,37 L145.486635,29.4147999 L150.033835,23.7895997 L147.054635,23.7895997 L143.605035,28.4347998 C143.291435,28.8855998 142.958235,29.3559999 142.644635,29.8655999 L142.585835,29.8655999 L142.585835,23.7895997 L140.194635,23.7895997 L140.194635,37 Z" id="Download-APK" fill="#59585B"></path>
                <path d="M18.0477413,17.1532847 L18.0477413,10 L22.9792481,10 L22.9792481,17.1532847 L25.2395221,17.1532847 L20.5134947,23.2846715 L15.7874673,17.1532847 L18.0477413,17.1532847 Z M27.7799417,27.147505 C32.10493,29.5173665 35.0134947,33.9379115 35.0134947,39 L6.01349472,39 C6.01349472,33.9178099 8.94520511,29.4822686 13.2986383,27.1193699 L10.9209787,23.0011428 C10.7767503,22.7513319 10.8661935,22.4296761 11.1047061,22.2919708 C11.3504044,22.1501168 11.6651835,22.2353487 11.8107309,22.4874442 L14.2198734,26.6602016 C16.1234243,25.7927591 18.2583373,25.3065693 20.5134947,25.3065693 C22.7898613,25.3065693 24.9437112,25.801947 26.8607618,26.6847769 L29.2840929,22.4874442 C29.4296403,22.2353487 29.7444193,22.1501168 29.9901176,22.2919708 C30.2286303,22.4296761 30.3180734,22.7513319 30.173845,23.0011428 L27.7799417,27.147505 Z M13.7326728,33.4817518 C14.4135718,33.4817518 14.9655495,32.9327287 14.9655495,32.2554745 C14.9655495,31.5782202 14.4135718,31.0291971 13.7326728,31.0291971 C13.0517738,31.0291971 12.4997961,31.5782202 12.4997961,32.2554745 C12.4997961,32.9327287 13.0517738,33.4817518 13.7326728,33.4817518 Z M27.2943166,33.4817518 C27.9752156,33.4817518 28.5271933,32.9327287 28.5271933,32.2554745 C28.5271933,31.5782202 27.9752156,31.0291971 27.2943166,31.0291971 C26.6134176,31.0291971 26.0614399,31.5782202 26.0614399,32.2554745 C26.0614399,32.9327287 26.6134176,33.4817518 27.2943166,33.4817518 Z" id="Combined-Shape" fill="#5D5D5D"></path>
                <g id="Group" transform="translate(41.025641, 8.160000)" fill-rule="nonzero" fill="#59585B">
                    <path d="M6.06717121,6.24837509 L4.64603201,6.24837509 C4.64603201,6.03475543 4.53671361,5.50070627 4.26341761,4.64622763 L2.186368,4.64622763 C1.913072,5.50070627 1.7490944,6.08816034 1.7490944,6.24837509 L0.437273601,6.24837509 C0.437273601,6.14156526 0.765228801,5.2336817 1.4757984,3.47131949 C2.186368,1.70895729 2.5143232,0.801073729 2.5143232,0.587454068 L4.20875841,0.587454068 C4.20875841,0.747668814 4.53671361,1.70895729 5.13796481,3.41791458 C5.79387521,5.18027678 6.06717121,6.08816034 6.06717121,6.24837509 Z M4.04478081,3.79174898 C3.552848,2.29641136 3.279552,1.49533763 3.279552,1.3885278 L3.2248928,1.3885278 C3.2248928,1.49533763 2.9515968,2.29641136 2.459664,3.79174898 L4.04478081,3.79174898 Z" id="Shape"></path>
                    <path d="M11.8063872,6.24837509 L10.7132032,6.24837509 C10.7132032,6.14156526 10.3305888,5.50070627 9.51070081,4.37920305 C8.63615361,3.20429492 8.19888001,2.34981627 8.03490241,1.92257695 L7.98024321,1.92257695 C8.03490241,2.56343593 8.08956161,3.15089 8.08956161,3.63153424 C8.08956161,4.32579814 8.08956161,5.2336817 8.14422081,6.24837509 L7.05103681,6.24837509 C7.10569601,5.34049153 7.10569601,4.37920305 7.10569601,3.31110475 C7.10569601,2.24300644 7.10569601,1.33512288 7.05103681,0.640858983 L8.36285761,0.640858983 C8.36285761,0.801073729 8.74547201,1.3885278 9.45604161,2.4566261 C10.2212704,3.57812932 10.658544,4.37920305 10.7678624,4.75303746 L10.8225216,4.75303746 C10.7678624,4.11217848 10.7132032,3.52472441 10.7132032,3.04408017 C10.7132032,2.24300644 10.7132032,1.44193271 10.658544,0.640858983 L11.751728,0.640858983 C11.6970688,1.33512288 11.6970688,2.24300644 11.6970688,3.31110475 C11.751728,4.37920305 11.751728,5.39389644 11.8063872,6.24837509 Z" id="Shape"></path>
                    <path d="M18.2015136,3.25769983 C18.2015136,4.05877356 17.9282176,4.80644237 17.3816256,5.39389644 C16.8350336,5.98135051 16.0698048,6.30178 15.1405984,6.30178 C14.7033248,6.30178 14.1020736,6.30178 13.3368448,6.24837509 C13.391504,5.39389644 13.391504,4.37920305 13.391504,3.31110475 C13.391504,2.24300644 13.391504,1.3885278 13.3368448,0.640858983 L14.1020736,0.640858983 L14.6486656,0.640858983 L15.1405984,0.640858983 C16.2337824,0.640858983 16.9990112,0.90788356 17.4362848,1.44193271 C17.9828768,1.86917203 18.2015136,2.51003102 18.2015136,3.25769983 Z M16.9990112,3.41791458 C16.9990112,2.88386542 16.8350336,2.40322119 16.5070784,2.02938678 C16.1791232,1.65555237 15.6871904,1.44193271 14.9766208,1.44193271 C14.8673024,1.44193271 14.6486656,1.44193271 14.4300288,1.49533763 C14.484688,2.0827917 14.484688,2.67024576 14.484688,3.31110475 C14.484688,4.00536865 14.484688,4.69963254 14.5393472,5.34049153 C14.757984,5.39389644 14.9219616,5.39389644 15.1405984,5.39389644 C15.7965088,5.39389644 16.2337824,5.18027678 16.5617376,4.80644237 C16.8350336,4.43260797 16.9990112,3.95196373 16.9990112,3.41791458 Z" id="Shape"></path>
                    <path d="M24.1593664,6.24837509 L22.8475456,6.24837509 C22.5195904,5.2336817 22.2462944,4.59282271 22.0823168,4.37920305 C21.9183392,4.16558339 21.590384,4.00536865 21.2077696,4.00536865 L20.7158368,4.00536865 C20.7158368,4.75303746 20.7158368,5.50070627 20.770496,6.24837509 L19.5133344,6.24837509 C19.5679936,5.39389644 19.5679936,4.37920305 19.5679936,3.31110475 C19.5679936,2.24300644 19.5679936,1.3885278 19.5133344,0.640858983 L20.2785632,0.640858983 L20.8251552,0.640858983 L21.590384,0.640858983 C22.956864,0.640858983 23.6127744,1.06809831 23.6127744,1.97598187 C23.6127744,2.67024576 23.23016,3.20429492 22.4649312,3.47131949 L22.4649312,3.52472441 C22.7382272,3.63153424 23.0115232,3.8451539 23.23016,4.21898831 C23.4487968,4.59282271 23.776752,5.2336817 24.1593664,6.24837509 Z M22.4649312,2.24300644 C22.4649312,1.65555237 22.0823168,1.3885278 21.317088,1.3885278 C21.043792,1.3885278 20.770496,1.3885278 20.6065184,1.44193271 C20.6611776,1.86917203 20.6611776,2.4566261 20.6611776,3.20429492 L21.0984512,3.20429492 C22.0276576,3.20429492 22.4649312,2.88386542 22.4649312,2.24300644 Z" id="Shape"></path>
                    <path d="M30.4998336,3.31110475 C30.4998336,4.21898831 30.2265376,4.91325221 29.6799456,5.50070627 C29.1333536,6.08816034 28.422784,6.35518492 27.602896,6.35518492 C26.8376672,6.35518492 26.1817568,6.08816034 25.6351648,5.55411119 C25.0885728,5.02006204 24.869936,4.32579814 24.869936,3.52472441 C24.869936,2.61684085 25.143232,1.92257695 25.689824,1.33512288 C26.236416,0.747668814 26.9469856,0.480644237 27.7668736,0.480644237 C28.5321024,0.480644237 29.1880128,0.747668814 29.7346048,1.28171797 C30.2265376,1.81576712 30.4998336,2.51003102 30.4998336,3.31110475 Z M29.2973312,3.47131949 C29.2973312,2.88386542 29.1333536,2.40322119 28.8053984,1.97598187 C28.4774432,1.60214746 28.0948288,1.3885278 27.6575552,1.3885278 C27.2202816,1.3885278 26.8376672,1.60214746 26.5643712,1.97598187 C26.236416,2.34981627 26.1270976,2.83046051 26.1270976,3.41791458 C26.1270976,4.00536865 26.2910752,4.48601288 26.6190304,4.85984729 C26.9469856,5.2336817 27.3296,5.44730136 27.7668736,5.44730136 C28.2041472,5.44730136 28.5867616,5.2336817 28.8600576,4.85984729 C29.1333536,4.48601288 29.2973312,4.00536865 29.2973312,3.47131949 Z" id="Shape"></path>
                    <path d="M33.0141568,6.24837509 L31.7569952,6.24837509 C31.8116544,5.34049153 31.8116544,4.37920305 31.8116544,3.31110475 C31.8116544,2.24300644 31.8116544,1.33512288 31.7569952,0.640858983 L33.0141568,0.640858983 C32.9594976,1.3885278 32.9594976,2.24300644 32.9594976,3.31110475 C32.9594976,4.37920305 32.9594976,5.39389644 33.0141568,6.24837509 Z" id="Shape"></path>
                    <path d="M39.4639425,3.25769983 C39.4639425,4.05877356 39.1906465,4.80644237 38.6440545,5.39389644 C38.0974625,5.98135051 37.3322337,6.30178 36.4030272,6.30178 C35.9657536,6.30178 35.3645024,6.30178 34.5992736,6.24837509 C34.6539328,5.39389644 34.6539328,4.37920305 34.6539328,3.31110475 C34.6539328,2.24300644 34.6539328,1.3885278 34.5992736,0.640858983 L35.3645024,0.640858983 L35.9110944,0.640858983 L36.4030272,0.640858983 C37.4962113,0.640858983 38.2614401,0.90788356 38.6987137,1.44193271 C39.1906465,1.86917203 39.4639425,2.51003102 39.4639425,3.25769983 Z M38.2067809,3.41791458 C38.2067809,2.88386542 38.0428033,2.40322119 37.7148481,2.02938678 C37.3868929,1.65555237 36.8949601,1.44193271 36.1843904,1.44193271 C36.075072,1.44193271 35.8564352,1.44193271 35.6377984,1.49533763 C35.6924576,2.0827917 35.6924576,2.67024576 35.6924576,3.31110475 C35.6924576,4.00536865 35.6924576,4.69963254 35.7471168,5.34049153 C35.9657536,5.39389644 36.1297312,5.39389644 36.348368,5.39389644 C37.0042785,5.39389644 37.4415521,5.18027678 37.7695073,4.80644237 C38.0974625,4.43260797 38.2067809,3.95196373 38.2067809,3.41791458 Z" id="Shape"></path>
                    <path d="M47.9907777,6.24837509 L46.5696385,6.24837509 C46.5696385,6.03475543 46.4603201,5.50070627 46.1870241,4.64622763 L44.1646337,4.64622763 C43.8913377,5.50070627 43.7273601,6.08816034 43.7273601,6.24837509 L42.4155393,6.24837509 C42.4155393,6.14156526 42.7434945,5.2336817 43.4540641,3.47131949 C44.1646337,1.70895729 44.4925889,0.801073729 44.4925889,0.587454068 L46.1870241,0.587454068 C46.1870241,0.747668814 46.5149793,1.70895729 47.1162305,3.41791458 C47.6628225,5.18027678 47.9907777,6.08816034 47.9907777,6.24837509 Z M45.9137281,3.79174898 C45.4217953,2.29641136 45.1484993,1.49533763 45.1484993,1.3885278 L45.0938401,1.3885278 C45.0938401,1.49533763 44.8205441,2.29641136 44.3286113,3.79174898 L45.9137281,3.79174898 Z" id="Shape"></path>
                    <path d="M53.1287425,2.0827917 C53.1287425,2.77705559 52.8554465,3.25769983 52.3635137,3.63153424 C51.8169217,3.95196373 51.2156705,4.11217848 50.4504417,4.11217848 L50.1771457,4.11217848 C50.1771457,4.64622763 50.1771457,5.39389644 50.2318049,6.24837509 L48.9746433,6.24837509 C49.0293025,5.39389644 49.0293025,4.43260797 49.0293025,3.31110475 C49.0293025,2.29641136 49.0293025,1.3885278 48.9746433,0.640858983 L49.7398721,0.640858983 L50.3957825,0.640858983 L51.2156705,0.640858983 C51.7622625,0.640858983 52.2541953,0.747668814 52.6368097,1.01469339 C52.9647649,1.22831305 53.1287425,1.60214746 53.1287425,2.0827917 Z M51.9808993,2.34981627 C51.9808993,1.70895729 51.5436257,1.44193271 50.7237377,1.44193271 C50.5051009,1.44193271 50.2864641,1.44193271 50.0678273,1.49533763 C50.1224865,2.02938678 50.1224865,2.67024576 50.1224865,3.36450966 L50.3957825,3.36450966 C51.4343073,3.31110475 51.9808993,2.99067526 51.9808993,2.34981627 Z" id="Shape"></path>
                    <path d="M58.4853441,2.0827917 C58.4853441,2.77705559 58.2120481,3.25769983 57.7201153,3.63153424 C57.1735233,3.95196373 56.5722721,4.11217848 55.8070433,4.11217848 L55.5337473,4.11217848 C55.5337473,4.64622763 55.5337473,5.39389644 55.5884065,6.24837509 L54.3312449,6.24837509 C54.3859041,5.39389644 54.3859041,4.43260797 54.3859041,3.31110475 C54.3859041,2.29641136 54.3859041,1.3885278 54.3312449,0.640858983 L55.0964737,0.640858983 L55.7523841,0.640858983 L56.5722721,0.640858983 C57.1188641,0.640858983 57.6107969,0.747668814 57.9934113,1.01469339 C58.2667073,1.22831305 58.4853441,1.60214746 58.4853441,2.0827917 Z M57.3375009,2.34981627 C57.3375009,1.70895729 56.9002273,1.44193271 56.0803393,1.44193271 C55.8617025,1.44193271 55.6430657,1.44193271 55.4244289,1.49533763 C55.4790881,2.02938678 55.4790881,2.67024576 55.4790881,3.36450966 L55.7523841,3.36450966 C56.7909089,3.31110475 57.3375009,2.99067526 57.3375009,2.34981627 Z" id="Shape"></path>
                </g>
            </g>
        </g>
    </g>
</svg>