<?xml version="1.0" encoding="UTF-8"?>
<svg width="162px" height="53px" viewBox="0 0 162 53" version="1.1" xmlns="http://www.w3.org/2000/svg" xmlns:xlink="http://www.w3.org/1999/xlink">
    <!-- Generator: Sketch 42 (36781) - http://www.bohemiancoding.com/sketch -->
    <title>btn_google_play</title>
    <desc>Created with Sketch.</desc>
    <defs>
        <rect id="path-1" x="0" y="0" width="160" height="51" rx="4"></rect>
        <mask id="mask-2" maskContentUnits="userSpaceOnUse" maskUnits="objectBoundingBox" x="-1" y="-1" width="162" height="53">
            <rect x="-1" y="-1" width="162" height="53" fill="white"></rect>
            <use xlink:href="#path-1" fill="black"></use>
        </mask>
    </defs>
    <g id="Page-1" stroke="none" stroke-width="1" fill="none" fill-rule="evenodd">
        <g id="Artboard" transform="translate(-28.000000, -99.000000)">
            <g id="btn_google_play" transform="translate(29.000000, 100.000000)">
                <g id="container">
                    <use fill="#FFFFFF" fill-rule="evenodd" xlink:href="#path-1"></use>
                    <use stroke="#5D5D5D" mask="url(#mask-2)" stroke-width="2" xlink:href="#path-1"></use>
                </g>
                <g id="Group" transform="translate(41.025641, 21.688421)" fill-rule="nonzero" fill="#59585B">
                    <path d="M16.3373923,8.98412518 C16.3373923,11.1570299 15.6531037,12.9120683 14.3272943,14.2074538 C12.8304128,15.753559 10.8630829,16.547505 8.42530443,16.547505 C6.11583012,16.547505 4.14850015,15.753559 2.52331452,14.2074538 C0.898128898,12.6195619 0.0855360855,10.697377 0.0855360855,8.35732575 C0.0855360855,6.01727454 0.898128898,4.09508962 2.52331452,2.50719772 C4.14850015,0.919305832 6.11583012,0.167146515 8.42530443,0.167146515 C9.58004158,0.167146515 10.6920107,0.376079659 11.7184437,0.835732575 C12.7448767,1.25359886 13.6002376,1.83861166 14.2417582,2.59077098 L12.8304128,3.96972973 C11.7612118,2.71613087 10.3070983,2.08933144 8.42530443,2.08933144 C6.71458271,2.08933144 5.26046926,2.67434424 4.06296406,3.84436984 C2.82269082,5.01439545 2.22393822,6.51871408 2.22393822,8.35732575 C2.22393822,10.1959374 2.82269082,11.700256 4.06296406,12.8702817 C5.3032373,14.0403073 6.75735076,14.6253201 8.42530443,14.6253201 C10.2215622,14.6253201 11.7184437,14.0403073 12.9159489,12.8702817 C13.6857737,12.1181223 14.1562222,11.03167 14.2417582,9.69449787 L8.42530443,9.69449787 L8.42530443,7.81409957 L16.2090882,7.81409957 C16.2946243,8.23196586 16.3373923,8.60804552 16.3373923,8.98412518 Z" id="Shape"></path>
                    <path d="M18.7751708,6.76943385 C19.8443718,5.68298151 21.1701812,5.13975533 22.8381348,5.13975533 C24.4633205,5.13975533 25.8318978,5.68298151 26.9010989,6.76943385 C27.9703,7.8558862 28.4835165,9.23484495 28.4835165,10.8645235 C28.4835165,12.494202 27.9703,13.8731607 26.9010989,14.9596131 C25.8318978,16.0460654 24.5060885,16.5892916 22.8381348,16.5892916 C21.2129492,16.5892916 19.8443718,16.0460654 18.7751708,14.9596131 C17.7059697,13.8731607 17.1927532,12.494202 17.1927532,10.8645235 C17.1499851,9.19305832 17.7059697,7.8558862 18.7751708,6.76943385 Z M20.3148203,13.6642276 C21.041877,14.3746003 21.8544699,14.7088933 22.8381348,14.7088933 C23.8217998,14.7088933 24.6343926,14.3746003 25.3614494,13.6642276 C26.0885061,12.9538549 26.4306504,12.0345491 26.4306504,10.8645235 C26.4306504,9.69449787 26.0885061,8.77519203 25.3614494,8.06481935 C24.6343926,7.35444666 23.8217998,7.02015363 22.8381348,7.02015363 C21.8544699,7.02015363 21.041877,7.35444666 20.3148203,8.06481935 C19.5877636,8.77519203 19.2456192,9.69449787 19.2456192,10.8645235 C19.2456192,11.9927624 19.5877636,12.9538549 20.3148203,13.6642276 Z" id="Shape"></path>
                    <path d="M30.7502228,6.76943385 C31.8194238,5.68298151 33.1452331,5.13975533 34.8131868,5.13975533 C36.4383724,5.13975533 37.8069498,5.68298151 38.8761509,6.76943385 C39.9453519,7.8558862 40.4585685,9.23484495 40.4585685,10.8645235 C40.4585685,12.494202 39.9453519,13.8731607 38.8761509,14.9596131 C37.8069498,16.0460654 36.4811405,16.5892916 34.8131868,16.5892916 C33.1880012,16.5892916 31.8194238,16.0460654 30.7502228,14.9596131 C29.6810217,13.8731607 29.1678052,12.494202 29.1678052,10.8645235 C29.1678052,9.19305832 29.6810217,7.8558862 30.7502228,6.76943385 Z M32.2898723,13.6642276 C33.016929,14.3746003 33.8295218,14.7088933 34.8131868,14.7088933 C35.7968518,14.7088933 36.6094446,14.3746003 37.3365013,13.6642276 C38.0635581,12.9538549 38.4057024,12.0345491 38.4057024,10.8645235 C38.4057024,9.69449787 38.0635581,8.77519203 37.3365013,8.06481935 C36.6094446,7.35444666 35.7968518,7.02015363 34.8131868,7.02015363 C33.8295218,7.02015363 33.016929,7.35444666 32.2898723,8.06481935 C31.5628156,8.77519203 31.2206712,9.69449787 31.2206712,10.8645235 C31.2206712,11.9927624 31.5628156,12.9538549 32.2898723,13.6642276 Z" id="Shape"></path>
                    <path d="M46.5743986,21.3111807 C45.2913573,21.3111807 44.2221562,20.9768876 43.4095634,20.3500882 C42.5969706,19.7232888 41.998218,18.9711294 41.6560737,18.1771835 L43.5378675,17.4250242 C43.7517078,18.010037 44.1366201,18.5114765 44.6926047,18.8875562 C45.2485892,19.2636358 45.8901099,19.472569 46.6171666,19.472569 C47.7719038,19.472569 48.6272646,19.138276 49.3115533,18.4696899 C49.953074,17.8011038 50.2952183,16.9235846 50.2952183,15.753559 L50.2952183,14.7088933 L50.2096822,14.7088933 C49.8675379,15.2521195 49.3543214,15.6699858 48.6700327,16.0042788 C48.028512,16.3385718 47.2586873,16.547505 46.4460944,16.547505 C45.034749,16.547505 43.7944758,16.0042788 42.7680428,14.9178265 C41.7416097,13.8313741 41.2283932,12.4524154 41.2283932,10.8227368 C41.2283932,9.19305832 41.7416097,7.8558862 42.7680428,6.72764723 C43.7944758,5.64119488 45.034749,5.09796871 46.4460944,5.09796871 C47.2586873,5.09796871 48.028512,5.26511522 48.6700327,5.64119488 C49.3115533,5.97548791 49.8247698,6.43514083 50.2096822,6.93658037 L50.2952183,6.93658037 L50.2952183,5.43226174 L52.2625483,5.43226174 L52.2625483,15.6281991 C52.2625483,17.4668108 51.7065637,18.8457696 50.6373626,19.806862 C49.4826255,20.8097411 48.1140481,21.3111807 46.5743986,21.3111807 Z M46.7027027,14.7088933 C47.6863677,14.7088933 48.4989605,14.3746003 49.1832492,13.6642276 C49.8675379,12.9538549 50.2096822,12.0345491 50.2096822,10.8227368 C50.2096822,9.65271124 49.8675379,8.69161878 49.1832492,7.98124609 C48.4989605,7.2708734 47.6863677,6.93658037 46.7027027,6.93658037 C45.7618058,6.93658037 44.9064449,7.2708734 44.2221562,7.98124609 C43.5378675,8.69161878 43.1957232,9.61092461 43.1957232,10.7809502 C43.1957232,11.9509758 43.5378675,12.8702817 44.2221562,13.5806543 C44.9492129,14.3746003 45.7618058,14.7088933 46.7027027,14.7088933 Z" id="Shape"></path>
                    <polygon id="Shape" points="56.1972082 16.2132119 54.1443421 16.2132119 54.1443421 0.543226174 56.1972082 0.543226174"></polygon>
                    <path d="M63.040095,16.547505 C61.3721414,16.547505 60.046332,16.0042788 58.977131,14.9178265 C57.950698,13.8313741 57.4374814,12.4524154 57.4374814,10.8227368 C57.4374814,9.27663158 57.950698,7.89767283 58.9343629,6.81122048 C59.960796,5.68298151 61.2438372,5.13975533 62.7834868,5.13975533 C64.4086724,5.13975533 65.7344817,5.64119488 66.6753787,6.6858606 C67.6590437,7.73052632 68.1294921,9.10948506 68.1294921,10.8645235 L68.0867241,11.2406031 L59.4048114,11.2406031 C59.4475794,12.3270555 59.8324918,13.1627881 60.5167805,13.7895875 C61.2010692,14.4163869 62.013662,14.7506799 62.9117909,14.7506799 C64.4086724,14.7506799 65.3923374,14.1238805 65.9055539,12.9120683 L67.7445797,13.6642276 C67.4024354,14.4999602 66.8036828,15.2103329 65.99109,15.753559 C65.2212652,16.2967852 64.1948322,16.547505 63.040095,16.547505 Z M65.99109,9.56913798 C65.9483219,8.94233855 65.6489456,8.35732575 65.1357291,7.81409957 C64.6225126,7.2708734 63.8099198,6.978367 62.7834868,6.978367 C62.013662,6.978367 61.3721414,7.22908677 60.8161568,7.68873969 C60.2601723,8.1483926 59.8752599,8.77519203 59.6614197,9.56913798 L65.99109,9.56913798 Z" id="Shape"></path>
                    <path d="M76.2981883,16.2132119 L74.2453222,16.2132119 L74.2453222,0.543226174 L79.7196317,0.543226174 C81.0882091,0.543226174 82.2429462,1.00287909 83.2693793,1.88039829 C84.2530443,2.7579175 84.7662608,3.88615647 84.7662608,5.22332859 C84.7662608,6.56050071 84.2530443,7.68873969 83.2693793,8.56625889 C82.2857143,9.44377809 81.0882091,9.90343101 79.7196317,9.90343101 L76.2981883,9.90343101 L76.2981883,16.2132119 Z M76.2981883,7.93945946 L79.7623998,7.93945946 C80.6177606,7.93945946 81.3448173,7.64695306 81.8580339,7.10372688 C82.3712504,6.51871408 82.6278586,5.89191465 82.6278586,5.22332859 C82.6278586,4.55474253 82.3712504,3.9279431 81.8580339,3.3429303 C81.3448173,2.7579175 80.6605287,2.50719772 79.7623998,2.50719772 L76.2981883,2.50719772 L76.2981883,7.93945946 Z" id="Shape"></path>
                    <polygon id="Shape" points="88.1449361 16.2132119 86.0920701 16.2132119 86.0920701 0.543226174 88.1449361 0.543226174"></polygon>
                    <path d="M93.4481734,16.547505 C92.2934363,16.547505 91.3097713,16.2132119 90.5399465,15.5446259 C89.7701218,14.8760398 89.3424413,13.9985206 89.3424413,12.9538549 C89.3424413,11.7838293 89.8128898,10.8645235 90.7537868,10.1959374 C91.6946837,9.52735135 92.8066528,9.19305832 94.1752302,9.19305832 C95.3727354,9.19305832 96.3991684,9.40199147 97.1689932,9.86164438 L97.1689932,9.56913798 C97.1689932,8.77519203 96.9123849,8.1483926 96.3564004,7.68873969 C95.8004158,7.22908677 95.1161271,6.978367 94.3035343,6.978367 C93.7047817,6.978367 93.1487971,7.10372688 92.6783487,7.39623329 C92.2079002,7.68873969 91.8657559,8.06481935 91.6946837,8.52447226 L89.8128898,7.73052632 C90.0694981,7.10372688 90.5827146,6.47692745 91.3097713,5.93370128 C92.036828,5.39047511 93.0632611,5.09796871 94.2607663,5.09796871 C95.6721117,5.09796871 96.8268488,5.51583499 97.7677458,6.30978094 C98.7086427,7.10372688 99.1363231,8.23196586 99.1363231,9.69449787 L99.1363231,16.1714253 L97.1689932,16.1714253 L97.1689932,14.6671067 L97.0834571,14.6671067 C96.2280962,15.9624922 95.030591,16.547505 93.4481734,16.547505 Z M93.7903178,14.7088933 C94.6456786,14.7088933 95.4155034,14.4163869 96.0997921,13.7895875 C96.7840808,13.1627881 97.1262251,12.4524154 97.1262251,11.5748962 C96.5274725,11.1152432 95.6721117,10.8645235 94.5173745,10.8645235 C93.5337095,10.8645235 92.7638848,11.0734566 92.2506683,11.4913229 C91.7374517,11.9091892 91.4808435,12.4106287 91.4808435,12.9956415 C91.4808435,13.5388677 91.6946837,13.956734 92.1651322,14.2492404 C92.6355806,14.5835334 93.1915652,14.7088933 93.7903178,14.7088933 Z" id="Shape"></path>
                    <polygon id="Shape" points="103.5842 20.935101 101.445797 20.935101 104.01188 15.5446259 99.4784675 5.47404836 101.702406 5.47404836 104.995545 13.2045747 105.038313 13.2045747 108.203148 5.47404836 110.427086 5.47404836"></polygon>
                </g>
                <g id="Group" transform="translate(41.025641, 8.160000)" fill-rule="nonzero" fill="#59585B">
                    <path d="M6.06717121,6.24837509 L4.64603201,6.24837509 C4.64603201,6.03475543 4.53671361,5.50070627 4.26341761,4.64622763 L2.186368,4.64622763 C1.913072,5.50070627 1.7490944,6.08816034 1.7490944,6.24837509 L0.437273601,6.24837509 C0.437273601,6.14156526 0.765228801,5.2336817 1.4757984,3.47131949 C2.186368,1.70895729 2.5143232,0.801073729 2.5143232,0.587454068 L4.20875841,0.587454068 C4.20875841,0.747668814 4.53671361,1.70895729 5.13796481,3.41791458 C5.79387521,5.18027678 6.06717121,6.08816034 6.06717121,6.24837509 Z M4.04478081,3.79174898 C3.552848,2.29641136 3.279552,1.49533763 3.279552,1.3885278 L3.2248928,1.3885278 C3.2248928,1.49533763 2.9515968,2.29641136 2.459664,3.79174898 L4.04478081,3.79174898 Z" id="Shape"></path>
                    <path d="M11.8063872,6.24837509 L10.7132032,6.24837509 C10.7132032,6.14156526 10.3305888,5.50070627 9.51070081,4.37920305 C8.63615361,3.20429492 8.19888001,2.34981627 8.03490241,1.92257695 L7.98024321,1.92257695 C8.03490241,2.56343593 8.08956161,3.15089 8.08956161,3.63153424 C8.08956161,4.32579814 8.08956161,5.2336817 8.14422081,6.24837509 L7.05103681,6.24837509 C7.10569601,5.34049153 7.10569601,4.37920305 7.10569601,3.31110475 C7.10569601,2.24300644 7.10569601,1.33512288 7.05103681,0.640858983 L8.36285761,0.640858983 C8.36285761,0.801073729 8.74547201,1.3885278 9.45604161,2.4566261 C10.2212704,3.57812932 10.658544,4.37920305 10.7678624,4.75303746 L10.8225216,4.75303746 C10.7678624,4.11217848 10.7132032,3.52472441 10.7132032,3.04408017 C10.7132032,2.24300644 10.7132032,1.44193271 10.658544,0.640858983 L11.751728,0.640858983 C11.6970688,1.33512288 11.6970688,2.24300644 11.6970688,3.31110475 C11.751728,4.37920305 11.751728,5.39389644 11.8063872,6.24837509 Z" id="Shape"></path>
                    <path d="M18.2015136,3.25769983 C18.2015136,4.05877356 17.9282176,4.80644237 17.3816256,5.39389644 C16.8350336,5.98135051 16.0698048,6.30178 15.1405984,6.30178 C14.7033248,6.30178 14.1020736,6.30178 13.3368448,6.24837509 C13.391504,5.39389644 13.391504,4.37920305 13.391504,3.31110475 C13.391504,2.24300644 13.391504,1.3885278 13.3368448,0.640858983 L14.1020736,0.640858983 L14.6486656,0.640858983 L15.1405984,0.640858983 C16.2337824,0.640858983 16.9990112,0.90788356 17.4362848,1.44193271 C17.9828768,1.86917203 18.2015136,2.51003102 18.2015136,3.25769983 Z M16.9990112,3.41791458 C16.9990112,2.88386542 16.8350336,2.40322119 16.5070784,2.02938678 C16.1791232,1.65555237 15.6871904,1.44193271 14.9766208,1.44193271 C14.8673024,1.44193271 14.6486656,1.44193271 14.4300288,1.49533763 C14.484688,2.0827917 14.484688,2.67024576 14.484688,3.31110475 C14.484688,4.00536865 14.484688,4.69963254 14.5393472,5.34049153 C14.757984,5.39389644 14.9219616,5.39389644 15.1405984,5.39389644 C15.7965088,5.39389644 16.2337824,5.18027678 16.5617376,4.80644237 C16.8350336,4.43260797 16.9990112,3.95196373 16.9990112,3.41791458 Z" id="Shape"></path>
                    <path d="M24.1593664,6.24837509 L22.8475456,6.24837509 C22.5195904,5.2336817 22.2462944,4.59282271 22.0823168,4.37920305 C21.9183392,4.16558339 21.590384,4.00536865 21.2077696,4.00536865 L20.7158368,4.00536865 C20.7158368,4.75303746 20.7158368,5.50070627 20.770496,6.24837509 L19.5133344,6.24837509 C19.5679936,5.39389644 19.5679936,4.37920305 19.5679936,3.31110475 C19.5679936,2.24300644 19.5679936,1.3885278 19.5133344,0.640858983 L20.2785632,0.640858983 L20.8251552,0.640858983 L21.590384,0.640858983 C22.956864,0.640858983 23.6127744,1.06809831 23.6127744,1.97598187 C23.6127744,2.67024576 23.23016,3.20429492 22.4649312,3.47131949 L22.4649312,3.52472441 C22.7382272,3.63153424 23.0115232,3.8451539 23.23016,4.21898831 C23.4487968,4.59282271 23.776752,5.2336817 24.1593664,6.24837509 Z M22.4649312,2.24300644 C22.4649312,1.65555237 22.0823168,1.3885278 21.317088,1.3885278 C21.043792,1.3885278 20.770496,1.3885278 20.6065184,1.44193271 C20.6611776,1.86917203 20.6611776,2.4566261 20.6611776,3.20429492 L21.0984512,3.20429492 C22.0276576,3.20429492 22.4649312,2.88386542 22.4649312,2.24300644 Z" id="Shape"></path>
                    <path d="M30.4998336,3.31110475 C30.4998336,4.21898831 30.2265376,4.91325221 29.6799456,5.50070627 C29.1333536,6.08816034 28.422784,6.35518492 27.602896,6.35518492 C26.8376672,6.35518492 26.1817568,6.08816034 25.6351648,5.55411119 C25.0885728,5.02006204 24.869936,4.32579814 24.869936,3.52472441 C24.869936,2.61684085 25.143232,1.92257695 25.689824,1.33512288 C26.236416,0.747668814 26.9469856,0.480644237 27.7668736,0.480644237 C28.5321024,0.480644237 29.1880128,0.747668814 29.7346048,1.28171797 C30.2265376,1.81576712 30.4998336,2.51003102 30.4998336,3.31110475 Z M29.2973312,3.47131949 C29.2973312,2.88386542 29.1333536,2.40322119 28.8053984,1.97598187 C28.4774432,1.60214746 28.0948288,1.3885278 27.6575552,1.3885278 C27.2202816,1.3885278 26.8376672,1.60214746 26.5643712,1.97598187 C26.236416,2.34981627 26.1270976,2.83046051 26.1270976,3.41791458 C26.1270976,4.00536865 26.2910752,4.48601288 26.6190304,4.85984729 C26.9469856,5.2336817 27.3296,5.44730136 27.7668736,5.44730136 C28.2041472,5.44730136 28.5867616,5.2336817 28.8600576,4.85984729 C29.1333536,4.48601288 29.2973312,4.00536865 29.2973312,3.47131949 Z" id="Shape"></path>
                    <path d="M33.0141568,6.24837509 L31.7569952,6.24837509 C31.8116544,5.34049153 31.8116544,4.37920305 31.8116544,3.31110475 C31.8116544,2.24300644 31.8116544,1.33512288 31.7569952,0.640858983 L33.0141568,0.640858983 C32.9594976,1.3885278 32.9594976,2.24300644 32.9594976,3.31110475 C32.9594976,4.37920305 32.9594976,5.39389644 33.0141568,6.24837509 Z" id="Shape"></path>
                    <path d="M39.4639425,3.25769983 C39.4639425,4.05877356 39.1906465,4.80644237 38.6440545,5.39389644 C38.0974625,5.98135051 37.3322337,6.30178 36.4030272,6.30178 C35.9657536,6.30178 35.3645024,6.30178 34.5992736,6.24837509 C34.6539328,5.39389644 34.6539328,4.37920305 34.6539328,3.31110475 C34.6539328,2.24300644 34.6539328,1.3885278 34.5992736,0.640858983 L35.3645024,0.640858983 L35.9110944,0.640858983 L36.4030272,0.640858983 C37.4962113,0.640858983 38.2614401,0.90788356 38.6987137,1.44193271 C39.1906465,1.86917203 39.4639425,2.51003102 39.4639425,3.25769983 Z M38.2067809,3.41791458 C38.2067809,2.88386542 38.0428033,2.40322119 37.7148481,2.02938678 C37.3868929,1.65555237 36.8949601,1.44193271 36.1843904,1.44193271 C36.075072,1.44193271 35.8564352,1.44193271 35.6377984,1.49533763 C35.6924576,2.0827917 35.6924576,2.67024576 35.6924576,3.31110475 C35.6924576,4.00536865 35.6924576,4.69963254 35.7471168,5.34049153 C35.9657536,5.39389644 36.1297312,5.39389644 36.348368,5.39389644 C37.0042785,5.39389644 37.4415521,5.18027678 37.7695073,4.80644237 C38.0974625,4.43260797 38.2067809,3.95196373 38.2067809,3.41791458 Z" id="Shape"></path>
                    <path d="M47.9907777,6.24837509 L46.5696385,6.24837509 C46.5696385,6.03475543 46.4603201,5.50070627 46.1870241,4.64622763 L44.1646337,4.64622763 C43.8913377,5.50070627 43.7273601,6.08816034 43.7273601,6.24837509 L42.4155393,6.24837509 C42.4155393,6.14156526 42.7434945,5.2336817 43.4540641,3.47131949 C44.1646337,1.70895729 44.4925889,0.801073729 44.4925889,0.587454068 L46.1870241,0.587454068 C46.1870241,0.747668814 46.5149793,1.70895729 47.1162305,3.41791458 C47.6628225,5.18027678 47.9907777,6.08816034 47.9907777,6.24837509 Z M45.9137281,3.79174898 C45.4217953,2.29641136 45.1484993,1.49533763 45.1484993,1.3885278 L45.0938401,1.3885278 C45.0938401,1.49533763 44.8205441,2.29641136 44.3286113,3.79174898 L45.9137281,3.79174898 Z" id="Shape"></path>
                    <path d="M53.1287425,2.0827917 C53.1287425,2.77705559 52.8554465,3.25769983 52.3635137,3.63153424 C51.8169217,3.95196373 51.2156705,4.11217848 50.4504417,4.11217848 L50.1771457,4.11217848 C50.1771457,4.64622763 50.1771457,5.39389644 50.2318049,6.24837509 L48.9746433,6.24837509 C49.0293025,5.39389644 49.0293025,4.43260797 49.0293025,3.31110475 C49.0293025,2.29641136 49.0293025,1.3885278 48.9746433,0.640858983 L49.7398721,0.640858983 L50.3957825,0.640858983 L51.2156705,0.640858983 C51.7622625,0.640858983 52.2541953,0.747668814 52.6368097,1.01469339 C52.9647649,1.22831305 53.1287425,1.60214746 53.1287425,2.0827917 Z M51.9808993,2.34981627 C51.9808993,1.70895729 51.5436257,1.44193271 50.7237377,1.44193271 C50.5051009,1.44193271 50.2864641,1.44193271 50.0678273,1.49533763 C50.1224865,2.02938678 50.1224865,2.67024576 50.1224865,3.36450966 L50.3957825,3.36450966 C51.4343073,3.31110475 51.9808993,2.99067526 51.9808993,2.34981627 Z" id="Shape"></path>
                    <path d="M58.4853441,2.0827917 C58.4853441,2.77705559 58.2120481,3.25769983 57.7201153,3.63153424 C57.1735233,3.95196373 56.5722721,4.11217848 55.8070433,4.11217848 L55.5337473,4.11217848 C55.5337473,4.64622763 55.5337473,5.39389644 55.5884065,6.24837509 L54.3312449,6.24837509 C54.3859041,5.39389644 54.3859041,4.43260797 54.3859041,3.31110475 C54.3859041,2.29641136 54.3859041,1.3885278 54.3312449,0.640858983 L55.0964737,0.640858983 L55.7523841,0.640858983 L56.5722721,0.640858983 C57.1188641,0.640858983 57.6107969,0.747668814 57.9934113,1.01469339 C58.2667073,1.22831305 58.4853441,1.60214746 58.4853441,2.0827917 Z M57.3375009,2.34981627 C57.3375009,1.70895729 56.9002273,1.44193271 56.0803393,1.44193271 C55.8617025,1.44193271 55.6430657,1.44193271 55.4244289,1.49533763 C55.4790881,2.02938678 55.4790881,2.67024576 55.4790881,3.36450966 L55.7523841,3.36450966 C56.7909089,3.31110475 57.3375009,2.99067526 57.3375009,2.34981627 Z" id="Shape"></path>
                    <path d="M67.1761569,3.31110475 C67.1761569,4.21898831 66.9028609,4.91325221 66.3562689,5.50070627 C65.8096769,6.08816034 65.0991073,6.35518492 64.2792193,6.35518492 C63.5139905,6.35518492 62.8580801,6.08816034 62.3114881,5.55411119 C61.7648961,5.02006204 61.5462593,4.32579814 61.5462593,3.52472441 C61.5462593,2.61684085 61.8195553,1.92257695 62.3661473,1.33512288 C62.9127393,0.747668814 63.6233089,0.480644237 64.4431969,0.480644237 C65.2084257,0.480644237 65.8643361,0.747668814 66.4109281,1.28171797 C66.9028609,1.81576712 67.1761569,2.51003102 67.1761569,3.31110475 Z M65.9189953,3.47131949 C65.9189953,2.88386542 65.7550177,2.40322119 65.4270625,1.97598187 C65.0991073,1.60214746 64.7164929,1.3885278 64.2792193,1.3885278 C63.8419457,1.3885278 63.4593313,1.60214746 63.1860353,1.97598187 C62.8580801,2.34981627 62.7487617,2.83046051 62.7487617,3.41791458 C62.7487617,4.00536865 62.9127393,4.48601288 63.2406945,4.85984729 C63.5686497,5.2336817 63.9512641,5.44730136 64.3885377,5.44730136 C64.8258113,5.44730136 65.2084257,5.2336817 65.4817217,4.85984729 C65.7550177,4.48601288 65.9189953,4.00536865 65.9189953,3.47131949 Z" id="Shape"></path>
                    <path d="M73.1886689,6.24837509 L72.0954849,6.24837509 C72.0954849,6.14156526 71.7128705,5.50070627 70.8929825,4.37920305 C70.0184353,3.20429492 69.5811617,2.34981627 69.4171841,1.92257695 L69.3625249,1.92257695 C69.4171841,2.56343593 69.4718433,3.15089 69.4718433,3.63153424 C69.4718433,4.32579814 69.4718433,5.2336817 69.5265025,6.24837509 L68.4333185,6.24837509 C68.4879777,5.34049153 68.4879777,4.37920305 68.4879777,3.31110475 C68.4879777,2.24300644 68.4879777,1.33512288 68.4333185,0.640858983 L69.7451393,0.640858983 C69.7451393,0.801073729 70.1277537,1.3885278 70.8383233,2.4566261 C71.6035521,3.57812932 72.0408257,4.37920305 72.1501441,4.75303746 L72.2048033,4.75303746 C72.1501441,4.11217848 72.0954849,3.52472441 72.0954849,3.04408017 C72.0954849,2.24300644 72.0954849,1.44193271 72.0408257,0.640858983 L73.1340097,0.640858983 C73.0793505,1.33512288 73.0793505,2.24300644 73.0793505,3.31110475 C73.0793505,4.37920305 73.1340097,5.39389644 73.1886689,6.24837509 Z" id="Shape"></path>
                </g>
                <path d="M11.0488859,43.0929579 C10.5688588,42.9647357 10.2564103,42.4921256 10.2564103,41.7607829 L10.2564103,17.6202361 C10.2564103,16.9429013 10.520965,16.4860884 10.9403354,16.32 L10.9403354,16.32 L22.9031874,29.7731837 L11.0488859,43.0929579 L11.0488859,43.0929579 Z M12.6956584,42.5805315 L27.0951569,34.4873887 L23.5879544,30.543259 L12.6956584,42.5805315 L12.6956584,42.5805315 Z M27.1943132,24.9515731 L12.9954872,16.9693621 L23.6087165,28.9804345 L27.1943132,24.9515731 L27.1943132,24.9515731 Z M28.157692,25.4931596 L33.7200102,28.6201504 C34.7731685,29.2122086 34.7827997,30.1666 33.7200102,30.7639338 L28.0169708,33.9692894 L24.2971385,29.7595269 L28.157692,25.4931596 L28.157692,25.4931596 Z" id="google-play" fill="#5D5D5D"></path>
            </g>
        </g>
    </g>
</svg>